<?xml version="1.0" standalone="no"?>
<!DOCTYPE svg PUBLIC "-//W3C//DTD SVG 20010904//EN"
 "http://www.w3.org/TR/2001/REC-SVG-20010904/DTD/svg10.dtd">
<svg version="1.0" xmlns="http://www.w3.org/2000/svg"
 width="128.000000pt" height="32.000000pt" viewBox="0 0 128.000000 32.000000"
 preserveAspectRatio="xMidYMid meet">
<metadata>
Created by potrace 1.16, written by Peter Selinger 2001-2019
</metadata>
<g transform="translate(0.000000,32.000000) scale(0.016020,-0.016327)"
fill="#000000" stroke="none">
<path d="M4137 1913 l3823 -3 3 -793 2 -792 3 798 2 797 -3827 -2 -3828 -3
3822 -2z"/>
<path d="M739 1675 c-147 -29 -272 -55 -277 -59 -18 -11 -34 -76 -28 -112 4
-18 16 -38 26 -44 26 -14 25 -23 -2 -35 -13 -6 -25 -21 -26 -34 -2 -13 -12
-26 -23 -28 -26 -7 -44 -70 -34 -120 5 -21 9 -64 9 -95 1 -48 5 -61 28 -85 22
-23 25 -32 16 -41 -7 -7 -20 -12 -30 -12 -11 0 -23 -11 -28 -26 -12 -30 -13
-94 -2 -110 4 -7 137 -102 295 -212 243 -170 292 -200 310 -193 114 44 514
214 522 222 6 6 -3 20 -25 38 -37 32 -38 29 8 90 l23 30 -53 27 c-29 14 -55
28 -57 30 -9 8 44 39 86 52 24 7 43 16 43 20 0 4 -13 16 -30 25 -65 39 -18
107 103 146 38 13 44 20 28 37 -11 10 9 84 21 84 24 0 2 21 -37 36 -36 13 -45
21 -45 41 0 13 11 35 26 49 14 14 24 30 22 35 -3 8 -484 245 -573 283 -26 11
-62 6 -296 -39z m545 -97 c149 -72 275 -134 279 -138 5 -4 -103 -35 -240 -69
-136 -34 -265 -67 -286 -72 -32 -8 -42 -18 -58 -53 -13 -30 -17 -54 -12 -76 8
-40 29 -52 -267 147 -216 145 -236 161 -244 194 -6 25 -5 44 5 65 14 28 19 30
264 80 138 29 259 53 269 53 11 1 142 -58 290 -131z m-743 -179 c24 -20 24
-20 2 -9 -13 6 -23 8 -23 5 0 -2 37 -23 83 -46 45 -23 125 -71 177 -107 52
-36 120 -82 150 -103 l55 -38 55 14 c30 7 106 28 169 45 62 17 115 29 118 27
2 -3 -40 -19 -94 -37 -110 -36 -136 -55 -136 -99 0 -17 -4 -31 -8 -31 -4 0
-150 71 -324 157 l-316 157 3 35 c3 33 14 43 59 50 4 1 17 -8 30 -20z m999
-57 l0 -47 -252 -63 c-139 -34 -259 -62 -265 -62 -8 0 -13 14 -13 34 0 19 6
38 13 43 6 4 125 38 262 74 138 37 251 67 253 68 1 1 2 -20 2 -47z m-1098 -23
c27 -26 408 -299 416 -299 3 0 2 4 -4 8 -27 23 -117 95 -179 141 -38 29 -63
52 -55 50 8 -3 98 -47 200 -98 l185 -95 -54 -12 c-29 -7 -58 -17 -65 -24 -6
-6 -13 -37 -16 -69 l-5 -59 -225 174 c-244 188 -261 207 -240 270 7 19 13 34
15 34 3 0 15 -10 27 -21z m1178 -76 c0 -5 -10 -20 -23 -35 -17 -20 -68 -43
-218 -96 -236 -85 -234 -84 -234 -53 0 22 17 30 230 107 244 88 245 88 245 77z
m-1106 -143 c51 -38 130 -108 175 -155 44 -48 81 -83 81 -79 0 5 -14 23 -32
41 -17 18 -30 35 -27 37 6 7 109 -73 109 -85 0 -5 -13 -12 -28 -15 -39 -8 -66
-55 -58 -102 7 -44 21 -58 -173 176 -83 101 -154 194 -157 207 -6 23 1 45 13
45 2 0 47 -31 97 -70z m926 -60 c-5 -17 -9 -34 -9 -37 0 -12 -495 -143 -504
-134 -5 5 -7 25 -5 46 l3 38 84 20 c64 15 85 16 91 7 8 -14 100 9 155 38 36
19 141 50 172 51 19 1 21 -2 13 -29z m-940 -82 c0 -5 -10 -3 -22 3 -32 17 -13
-1 32 -31 21 -14 87 -82 145 -152 58 -71 110 -128 115 -128 5 0 36 7 69 16 34
8 71 16 84 18 12 1 29 5 37 9 28 12 201 49 206 44 3 -2 -36 -19 -86 -37 -50
-18 -93 -36 -95 -40 -3 -5 -13 -6 -23 -3 -23 6 -44 -38 -44 -92 0 -20 -3 -35
-8 -33 -7 3 -144 97 -428 293 -87 61 -87 61 -90 108 -3 38 0 48 15 53 10 3 25
9 33 14 15 8 60 -24 60 -42z m855 -93 c0 -15 -6 -27 -15 -30 -49 -15 -527
-125 -543 -125 -13 0 -17 5 -13 15 3 8 1 15 -4 15 -6 0 -10 11 -10 25 0 19 8
28 36 40 43 18 80 19 89 4 9 -13 96 -3 140 16 65 29 300 80 314 68 3 -2 5 -14
6 -28z m78 -76 c-6 -6 -9 -26 -6 -43 l5 -33 -220 -91 c-121 -51 -225 -92 -231
-92 -6 0 -11 6 -12 13 0 6 -2 22 -3 35 -3 30 10 37 264 139 226 90 218 87 203
72z"/>
<path d="M32 838 l-2 -798 3828 2 3827 3 -3822 2 -3823 3 -3 793 -2 792 -3
-797z"/>
<path d="M2720 1253 c0 -72 14 -82 31 -23 14 48 34 55 113 46 52 -7 54 -8 60
-44 8 -48 8 -269 0 -354 -7 -66 -7 -67 -43 -76 -28 -8 -10 -10 89 -10 92 0
117 2 93 9 -31 9 -31 10 -38 92 -8 98 -3 362 7 372 4 4 38 10 76 13 l69 5 15
-44 c20 -59 38 -62 38 -7 0 90 21 83 -261 83 l-249 0 0 -62z"/>
<path d="M3486 1288 c-7 -18 -52 -133 -100 -255 -84 -214 -89 -223 -119 -232
-25 -7 -11 -9 63 -9 87 0 92 1 58 11 l-37 12 22 65 23 65 98 3 c63 2 103 -1
112 -9 16 -13 50 -116 41 -125 -3 -3 -21 -10 -39 -14 -22 -5 7 -8 87 -8 88 0
113 2 94 9 -30 11 -48 47 -170 342 -65 158 -75 177 -97 177 -17 0 -27 -9 -36
-32z m68 -209 c20 -47 36 -89 36 -93 0 -11 -158 -7 -165 5 -4 5 10 53 31 104
30 72 42 92 50 82 6 -6 28 -51 48 -98z"/>
<path d="M4690 1284 c0 -17 -3 -46 -6 -63 -10 -48 20 -41 35 9 10 34 16 40 47
46 20 4 54 3 77 -2 l42 -9 8 -91 c5 -51 5 -152 0 -225 l-8 -134 -35 -12 c-31
-10 -19 -12 90 -12 91 1 117 3 94 10 -26 7 -32 15 -38 46 -11 68 -7 411 5 419
6 3 39 9 73 11 67 6 76 1 93 -51 14 -43 33 -45 33 -3 0 19 -3 47 -6 63 l-5 29
-250 0 -249 0 0 -31z"/>
<path d="M1896 1298 c29 -9 32 -15 38 -62 8 -66 8 -206 -1 -329 l-6 -97 -31
-9 c-23 -7 2 -9 89 -9 88 0 112 2 89 9 -37 10 -44 36 -44 161 0 95 12 105 57
52 55 -64 142 -180 145 -194 2 -7 -8 -17 -22 -21 -14 -4 26 -7 95 -8 109 0
117 1 90 13 -34 16 -92 75 -187 191 -102 126 -103 109 7 210 51 47 107 90 122
95 20 6 0 8 -67 8 -81 0 -90 -1 -60 -10 l35 -10 -105 -101 -105 -100 -3 49
c-2 27 -1 73 3 101 6 49 9 54 38 62 24 7 1 9 -88 9 -95 0 -113 -2 -89 -10z"/>
<path d="M2484 1300 c16 -5 33 -15 37 -22 10 -15 12 -411 3 -446 -4 -14 -18
-25 -38 -31 -24 -7 -5 -9 77 -10 65 -1 107 3 107 9 0 6 -6 10 -14 10 -8 0 -17
7 -20 16 -3 9 -6 116 -6 239 l0 223 38 10 c30 8 14 10 -88 10 -86 0 -116 -2
-96 -8z"/>
<path d="M3822 1304 c4 -4 25 -10 45 -13 l38 -6 8 -97 c5 -53 5 -158 0 -234
l-8 -139 -38 -6 c-78 -12 -46 -19 93 -19 139 0 166 5 98 19 -39 8 -46 26 -47
129 l-1 72 62 0 c143 0 229 102 180 213 -32 73 -56 81 -262 85 -96 2 -172 1
-168 -4z m287 -29 c55 -28 79 -127 44 -186 -20 -34 -68 -59 -112 -59 l-31 0 0
108 c0 138 4 152 42 152 16 0 42 -7 57 -15z"/>
<path d="M5250 1296 l35 -13 0 -234 0 -234 -35 -12 c-31 -10 -20 -12 90 -12
110 0 121 2 90 12 l-35 12 -3 103 c-3 101 -2 102 20 102 36 0 59 -21 123 -113
68 -98 94 -117 162 -117 l48 0 -26 23 c-15 12 -57 65 -94 117 -37 52 -71 97
-76 100 -4 3 7 18 26 33 73 58 65 160 -18 215 -39 26 -46 27 -191 29 -134 2
-147 1 -116 -11z m237 -47 c8 -7 21 -25 29 -40 40 -78 -10 -159 -96 -159 l-30
0 0 109 c0 79 4 111 13 114 16 5 65 -9 84 -24z"/>
<path d="M5753 1303 c4 -3 24 -9 44 -12 l38 -6 8 -106 c4 -59 4 -165 0 -235
l-8 -129 -35 -12 c-30 -10 -5 -12 158 -12 l192 -1 0 60 c0 33 -4 60 -9 60 -5
0 -16 -19 -23 -42 -14 -42 -16 -43 -64 -46 -27 -2 -64 -1 -81 3 l-33 6 0 104
c0 118 2 120 86 113 33 -3 41 -8 53 -35 8 -18 18 -33 22 -33 13 0 20 53 13
107 -7 56 -24 67 -34 22 -6 -22 -10 -24 -70 -24 l-65 0 -3 91 -3 91 32 7 c17
3 53 6 79 6 46 0 48 -1 64 -40 9 -22 20 -40 26 -40 11 0 13 52 4 88 -6 22 -8
22 -202 22 -107 0 -192 -3 -189 -7z"/>
<path d="M6217 1291 c23 -11 46 -28 52 -39 12 -22 16 -357 5 -411 -5 -25 -12
-31 -33 -32 -14 0 -35 -4 -46 -9 -13 -5 25 -9 104 -9 68 -1 122 1 120 4 -3 2
-23 8 -45 13 -37 7 -39 10 -46 52 -10 69 -9 328 1 335 9 5 246 -247 346 -367
40 -49 68 -62 64 -30 -1 9 -1 124 0 254 l1 237 33 10 c25 7 13 9 -63 9 -70 0
-87 -2 -66 -8 16 -5 33 -15 37 -22 11 -16 12 -328 2 -327 -9 1 -284 301 -308
337 -15 20 -24 22 -108 22 l-92 0 42 -19z"/>
<path d="M6870 1297 l35 -12 3 -215 c1 -118 0 -224 -2 -236 -4 -13 -19 -25
-38 -31 -26 -9 8 -11 153 -12 211 -1 252 7 313 65 55 52 80 114 80 199 0 109
-46 180 -149 227 -46 21 -67 23 -240 25 -161 2 -185 1 -155 -10z m301 -32 c87
-30 139 -105 139 -202 0 -101 -31 -168 -98 -212 -41 -27 -133 -38 -174 -22
l-28 11 0 213 c0 118 3 217 7 220 12 13 109 7 154 -8z"/>
<path d="M2795 455 c-50 -49 -15 -135 55 -135 41 0 80 39 80 80 0 41 -39 80
-80 80 -19 0 -40 -9 -55 -25z"/>
</g>
</svg>
